<svg xmlns="http://www.w3.org/2000/svg" version="1.1" width="256" height="256" viewbox="0 0 256 256">
    <g id="redPeregrine">
        <path id="Wings" d="M113.252,169.534c40.8,-11.362 26.657,-52.752 6.431,-66.668c8.988,-5.612 22.854,-13.934 27.838,-17.827c1.647,-1.287 6.769,-6.163 6.906,-8.653c0.265,-4.816 -10.319,-13.03 -15.846,-17.489c-6.035,-4.871 -54.194,-33.289 -80.379,-49.17l-0.944,-4.59l9.148,0.153c46.601,20.29 127.847,54.982 140.133,61.983c11.133,6.343 15.847,9.818 24.231,18.574c8.497,8.874 17.084,18.662 14.546,35.79c-0.573,3.864 -11.601,4.1 -19.813,8.566c-4.279,2.327 -8.371,6.438 -7.095,16.184c0.293,2.241 1.821,4.48 3.671,6.492l-25.294,49.723c-0.675,1.569 -1.326,3.154 -1.167,5.304c0.782,4.665 3.479,8.375 4.459,16.456c0.747,6.162 -0.424,13.736 -14.852,16.312c-10.158,1.813 -32.308,2.633 -41.581,-2.786c-16.287,-9.519 -97.967,-55.347 -139.724,-95.981l-3.248,-8.395c27.414,11.372 73.526,30.447 84.15,34.23c5.08,1.809 6.087,2.234 18.427,3.812c6.387,0.817 7.434,-1.002 10.003,-2.02Z" style="fill:#c00400;stroke:#5e0e0c;stroke-width:1.5px;"/>
        <path id="Body" d="M67.446,143.395c-4.462,-2.117 -9.629,-8.634 -13.559,-12.944l-9.336,-10.127l-8.806,-8.31l2.366,-3.469l23.943,3.93l-6.383,-5.768l-6.026,-1.115l-9.29,-6.607l3.918,-4.247l41.315,5.732l-0.198,-0.053c1.743,-1.253 3.107,-2.867 6.249,-2.791c10.904,1.029 19.202,3.381 28.044,5.24l0.061,0.125c22.02,4.258 76.147,28.574 102.175,49.783l0.16,0.105c1.579,1.718 3.393,3.27 4.872,4.515c32.346,27.231 18.071,23.281 22.379,30.34c9.393,13.534 5.492,15.861 1.694,19.522l0.195,-4.655c-5.302,-3.047 -7.316,-1.479 -10.877,-1.978c-13.786,0.879 -23.178,3.072 -43.557,1.979c-17.643,-1.991 -45.462,-9.543 -83.767,-33.083l0.234,0.015c-18.72,-10.664 -26.107,-18.434 -38.173,-23.379c-2.771,-1.135 -7.633,-2.76 -7.633,-2.76Z" style="fill:#e9d8ce;stroke:#5e0e0c;stroke-width:1.5px;"/>
        <path id="Tail" d="M75.079,146.155c-16.753,-6.864 -22.245,-4.697 -58.226,-23.049l-10.615,-14.537l5.369,-25.856l9.793,-11.446l12.595,1.737l51.395,27.413l0.198,0.053l-41.315,-5.732l-3.918,4.247l9.29,6.607l6.026,1.115l6.383,5.768l-23.943,-3.93l-2.366,3.469l8.806,8.31l9.336,10.127c3.93,4.31 9.097,10.827 13.559,12.944" style="fill:#c00400;stroke:#5e0e0c;stroke-width:1.5px;"/>
        <path id="Mask" d="M249.33,187.734c-4.308,-7.059 9.967,-3.109 -22.379,-30.34c-1.479,-1.245 -3.293,-2.797 -4.872,-4.515l0.035,0.014c-9.196,8.832 -7.636,9.199 -10.27,13.373c10.893,8.469 3.701,19.501 2.215,22.633c2.284,4.994 4.03,6.168 5.864,6.379c14.52,3.617 14.554,1.903 20.011,0.099c1.934,-0.806 2.989,-0.9 4.004,-0.346c4.697,-4.097 4.475,-5.46 5.498,-7.198" style="fill:#c00400;stroke:#5e0e0c;stroke-width:1.5px;"/>
        <g id="Face">
            <path id="Eye" d="M230.869,177.461c2.904,0.222 5.567,0.172 9.199,1.215c4.733,3.069 4.97,4.058 6.243,5.551c0.218,1.018 0.427,2.039 -0.386,3.435c-3.116,2.637 -3.575,2.974 -5.065,2.727c-3.194,-3.505 -6.171,-5.726 -9.991,-12.928Z" style="fill:#e9d8ce;stroke:#5e0e0c;stroke-width:1.5px;"/>
            <path id="nostril" d="M248.691,192.877l1.136,0.722l-0.106,0.573l-1.03,-1.295Z" style="fill:#c00400;stroke:#5e0e0c;stroke-width:1.5px;"/>
            <path id="mouth" d="M243.928,196.074l7.297,7.409" style="fill:none;stroke:#5e0e0c;stroke-width:1.5px;"/>
            <path id="eyeball" d="M237.667,180.753c1.587,-0.002 6.787,3.434 7.164,4.603c-0.19,1.599 -1.537,2.812 -3.171,2.775c-1.526,0.177 -0.905,-3.075 -3.993,-7.378Z" style="fill:#712926;stroke:#712926;stroke-width:1px;"/>
        </g>
    </g>
</svg>