<svg xmlns="http://www.w3.org/2000/svg" version="1.1" width="1024" height="256" viewbox="0 0 1024 256">
    <g id="Text">
        <path d="M997.946,155.673c0,0.984 -0.697,1.846 -2.091,2.584c-2.215,1.23 -5.681,2.543 -10.397,3.937c-4.717,1.395 -8.593,2.379 -11.628,2.953c-4.757,0.903 -9.536,1.62 -14.334,2.153c-4.799,0.534 -7.895,0.841 -9.29,0.923c0.082,4.758 0.205,9.659 0.369,14.704c0.164,5.044 0.287,8.51 0.369,10.397c3.2,-0.41 7.998,-1.19 14.396,-2.338l4.676,-0.738c5.168,-0.903 9.146,-2.543 11.935,-4.922c1.477,-1.148 2.543,-1.722 3.199,-1.722c0.574,-0 1.046,0.307 1.415,0.922c0.369,0.616 0.554,1.251 0.554,1.907c-0,1.477 -1.661,3.097 -4.983,4.861c-3.323,1.763 -6.993,3.055 -11.013,3.875c-3.363,0.739 -7.136,1.436 -11.32,2.092c-4.183,0.656 -6.931,1.067 -8.243,1.231c0.492,14.026 1.927,24.444 4.306,31.252c2.379,0.82 4.717,1.415 7.014,1.784c2.296,0.369 5.249,0.554 8.859,0.554c3.609,0 7.054,-0.472 10.335,-1.415c3.281,-0.943 5.927,-2.112 7.936,-3.507c2.01,-1.394 3.015,-2.707 3.015,-3.937c-0,-0.656 -0.123,-1.292 -0.369,-1.907c-0.246,-0.615 -0.575,-1.251 -0.985,-1.907c-0.164,-0.246 -0.43,-0.636 -0.799,-1.169c-0.37,-0.533 -0.554,-0.964 -0.554,-1.292c-0,-0.82 0.902,-1.231 2.707,-1.231c1.312,0 2.44,0.554 3.383,1.662c0.944,1.107 1.415,2.317 1.415,3.629c0,2.625 -1.168,5.209 -3.506,7.752c-2.338,2.543 -5.537,4.614 -9.598,6.213c-4.06,1.6 -8.551,2.4 -13.473,2.4c-5.003,-0 -9.105,-0.267 -12.304,-0.8c-3.199,-0.533 -5.619,-1.579 -7.259,-3.138c-1.969,-2.214 -3.343,-6.07 -4.122,-11.565c-0.779,-5.496 -1.456,-12.838 -2.03,-22.025c-1.559,0.41 -3.302,0.759 -5.23,1.046c-1.927,0.287 -3.383,0.431 -4.368,0.431c-0.984,-0 -1.784,-0.308 -2.399,-0.923c-0.615,-0.615 -0.923,-1.374 -0.923,-2.277c0,-0.574 0.103,-1.066 0.308,-1.476c0.205,-0.41 0.512,-0.656 0.923,-0.738c2.707,-0.328 4.675,-0.533 5.906,-0.616l5.29,-0.615c-0.328,-10.581 -0.656,-19.194 -0.984,-25.839c-1.23,0 -2.215,0.041 -2.953,0.124l-5.66,0.123c-0.738,-0 -1.312,-0.206 -1.722,-0.616c-0.411,-0.41 -0.616,-0.861 -0.616,-1.353c0,-1.969 1.313,-3.281 3.938,-3.937c0.984,-0.165 2.235,-0.349 3.752,-0.554c1.518,-0.205 2.523,-0.308 3.015,-0.308c1.559,-1.722 3.281,-2.584 5.168,-2.584c0.328,0 0.594,0.267 0.8,0.8c0.205,0.533 0.307,0.923 0.307,1.169c5.414,-0.246 11.853,-0.861 19.318,-1.846c4.921,-0.656 12.509,-2.214 22.762,-4.675l4.553,-0.985c0.82,0 1.23,0.493 1.23,1.477Z" style="fill-rule:nonzero;stroke:#000;stroke-width:4px;"/>
        <path d="M920.607,232.36c0,0.984 -1.599,1.477 -4.798,1.477c-0.575,-0 -4.409,-4.409 -11.505,-13.227c-7.095,-8.818 -12.94,-16.344 -17.533,-22.579c-0.657,-0.902 -2.748,-3.896 -6.275,-8.982c-5.168,-7.546 -8.367,-12.099 -9.598,-13.657l-0.246,9.474l-0.123,9.228c0,5.824 -0.061,12.14 -0.184,18.949c-0.123,6.808 -0.267,12.222 -0.431,16.241c-0.082,0.984 -0.513,1.887 -1.292,2.707c-0.779,0.82 -1.579,1.23 -2.399,1.23c-0.903,0 -1.538,-0.266 -1.907,-0.799c-0.37,-0.534 -0.554,-1.579 -0.554,-3.138c-0,-0.984 0.164,-4.019 0.492,-9.105c0.738,-9.433 1.107,-17.349 1.107,-23.747c0,-5.086 0.082,-9.905 0.246,-14.458c0.165,-4.552 0.247,-7.362 0.247,-8.428l0.123,-3.568l-0,-0.369c-0,-0.903 0.143,-1.62 0.43,-2.154c0.287,-0.533 0.882,-0.799 1.784,-0.799l0.616,-0c0.902,-0 2.686,1.62 5.352,4.86c2.666,3.24 6.049,7.649 10.151,13.227c0.902,1.148 1.763,2.276 2.584,3.384c0.82,1.107 1.599,2.153 2.338,3.137c4.675,5.988 7.136,9.146 7.382,9.474c11.648,14.847 18.005,23.296 19.072,25.347c-0.164,-0.656 -0.452,-2.174 -0.862,-4.553c-0.41,-2.378 -0.8,-5.495 -1.169,-9.351c-0.369,-3.855 -0.553,-7.833 -0.553,-11.935c-0,-7.3 -0.698,-16.939 -2.092,-28.915c-0.41,-3.937 -0.615,-6.357 -0.615,-7.259c-0,-3.117 1.763,-4.676 5.291,-4.676c0.82,0 1.435,0.841 1.845,2.523c0.41,1.681 0.697,5.229 0.861,10.643c0.165,5.414 0.247,14.068 0.247,25.962c-0,3.773 0.143,7.464 0.43,11.073c0.287,3.61 0.554,6.809 0.8,9.598c0.41,3.855 0.615,6.767 0.615,8.736l0.123,4.429Z" style="fill-rule:nonzero;stroke:#000;stroke-width:4px;"/>
        <path d="M855.366,160.852c-0,1.395 -0.697,2.385 -2.092,2.973c-1.394,0.587 -3.449,1.137 -6.165,1.651c-3.009,0.587 -6.826,1.156 -11.449,1.706c-4.624,0.551 -8.367,0.899 -11.23,1.046c-0.22,3.156 -0.513,12.257 -0.88,27.302c-0.367,15.046 -0.587,26.165 -0.661,33.358c3.963,-0.074 9.174,-0.33 15.633,-0.771c5.431,-0.293 8.477,-0.44 9.137,-0.44c1.322,-0 2.514,0.293 3.578,0.881c1.065,0.587 1.597,1.504 1.597,2.752c-0,1.027 -0.165,1.761 -0.496,2.202c-0.33,0.44 -1.046,0.66 -2.146,0.66c-0.441,0 -1.652,-0.11 -3.633,-0.33c-1.468,-0.294 -2.716,-0.441 -3.743,-0.441c-3.45,0 -10.349,0.221 -20.697,0.661c-0.367,0.514 -0.789,0.899 -1.266,1.156c-0.478,0.257 -0.9,0.385 -1.266,0.385c-0.441,0 -0.881,-0.11 -1.322,-0.33c-0.44,-0.22 -0.697,-0.55 -0.77,-0.991l-4.954,0.551c-5.725,0.734 -9.982,1.101 -12.771,1.101c-2.422,-0 -4.257,-0.514 -5.504,-1.542c-0.661,-0.587 -0.991,-1.651 -0.991,-3.192c-0,-0.441 0.239,-0.991 0.716,-1.652c0.477,-0.66 0.972,-0.99 1.486,-0.99c0.147,-0 0.715,0.201 1.706,0.605c0.991,0.404 1.927,0.606 2.807,0.606c2.716,-0 6.716,-0.147 12,-0.441l5.064,-0.33l0.661,-16.183c0.073,-1.688 0.147,-3.211 0.22,-4.569c0.074,-1.358 0.11,-2.514 0.11,-3.468l1.101,-35.999c-7.633,0.513 -11.266,0.77 -10.899,0.77c-7.486,0.587 -11.89,0.881 -13.211,0.881c-1.247,-0 -2.422,-0.404 -3.522,-1.211c-1.101,-0.807 -1.652,-1.835 -1.652,-3.083c0,-0.88 0.239,-1.578 0.716,-2.091c0.477,-0.514 1.119,-0.771 1.926,-0.771c0.587,0 1.175,0.037 1.762,0.11c0.587,0.074 1.174,0.147 1.761,0.22c1.835,0.367 3.597,0.551 5.285,0.551c1.614,-0 4.697,-0.129 9.247,-0.386c4.551,-0.256 7.596,-0.422 9.138,-0.495c0.073,-0.954 0.403,-1.743 0.99,-2.367c0.588,-0.624 1.358,-0.936 2.312,-0.936c0.441,0 0.808,0.294 1.101,0.881c0.294,0.587 0.441,1.248 0.441,1.982c4.256,-0.147 11.926,-1.101 23.008,-2.863c0.881,-0.146 1.854,-0.55 2.918,-1.211c1.064,-0.66 1.669,-0.99 1.816,-0.99c0.734,-0 1.431,0.293 2.092,0.88c0.661,0.587 0.991,1.321 0.991,2.202Z" style="fill-rule:nonzero;stroke:#000;stroke-width:4px;"/>
        <path d="M784.765,224.884c0,0.881 -0.367,1.945 -1.1,3.193c-0.734,1.248 -1.505,1.872 -2.312,1.872c-0.734,-0 -1.432,-0.129 -2.092,-0.386c-0.661,-0.257 -1.651,-0.752 -2.972,-1.486c-4.624,-2.715 -10.679,-5.358 -18.165,-7.926c-3.303,-1.101 -7.211,-2.257 -11.725,-3.468c-4.514,-1.211 -8.055,-2.11 -10.624,-2.697l0.771,14.201c0.073,1.982 0.33,3.651 0.771,5.009c0.44,1.358 0.66,2.22 0.66,2.587c0,0.808 -0.404,1.487 -1.211,2.037c-0.807,0.551 -1.651,0.826 -2.532,0.826c-1.101,-0 -1.798,-0.771 -2.092,-2.312c0,-0.147 -0.091,-0.807 -0.275,-1.982c-0.183,-1.174 -0.275,-2.825 -0.275,-4.954c-0,-1.394 -0.147,-4.367 -0.44,-8.917c-0.074,-1.541 -0.147,-3.028 -0.221,-4.459c-0.073,-1.431 -0.11,-2.697 -0.11,-3.798c-0.22,-0.22 -0.495,-0.477 -0.825,-0.771c-0.331,-0.293 -0.606,-0.697 -0.826,-1.211c-0.22,-0.66 -0.404,-1.357 -0.551,-2.091c-0.146,-0.734 -0.22,-1.285 -0.22,-1.652c0,-0.513 0.147,-0.917 0.441,-1.211c0.293,-0.293 0.734,-0.623 1.321,-0.99c-0.441,-18.349 -0.661,-28.844 -0.661,-31.486c0,-2.349 0.037,-4.514 0.11,-6.495c0.074,-1.982 0.11,-3.303 0.11,-3.964c-0.44,0.074 -0.779,0.312 -2.981,0.605c-2.202,0.294 -2.611,0.897 -5.07,1.888c-2.458,0.991 -4.825,2.11 -7.101,3.358c-0.66,0.44 -1.302,0.789 -1.926,1.046c-0.624,0.257 -1.23,0.385 -1.817,0.385c-0.587,0 -1.101,-0.275 -1.541,-0.826c-0.44,-0.55 -0.66,-1.229 -0.66,-2.036c-0,-1.395 2.348,-3.009 7.045,-4.844c4.697,-1.835 10.382,-3.667 15.152,-4.144c4.771,-0.478 9.211,-0.716 13.321,-0.716c7.046,-0 13.046,0.771 18,2.312c4.954,1.541 8.697,3.706 11.229,6.495c2.532,2.789 3.798,5.982 3.798,9.578c0,4.624 -1.321,8.587 -3.963,11.89c-2.642,3.302 -6.147,6.165 -10.514,8.587c-4.367,2.422 -10.293,5.174 -17.779,8.257c-1.908,0.88 -3.798,1.688 -5.67,2.422c-1.871,0.733 -3.137,1.247 -3.798,1.541c0,0.44 0.037,0.77 0.11,0.991c7.927,1.761 15.743,3.779 23.449,6.055l2.312,0.66c8,2.422 13.908,4.312 17.725,5.67c3.816,1.357 5.724,2.477 5.724,3.357Zm-13.1,-49.43c-0,-2.422 -1.064,-4.66 -3.193,-6.716c-2.128,-2.055 -5.339,-3.724 -9.633,-5.009c-4.293,-1.284 -9.486,-1.926 -15.578,-1.926c-4.55,-0 -7.412,0.073 -8.587,0.22c-0.073,0.514 -0.165,1.725 -0.275,3.633c-0.11,1.908 -0.165,3.816 -0.165,5.725l0.44,17.614l0.441,13.651c0.66,-0.073 1.963,-0.422 3.908,-1.046c1.945,-0.623 3.578,-1.229 4.899,-1.816c9.321,-3.743 16.275,-7.505 20.862,-11.284c4.587,-3.78 6.881,-8.129 6.881,-13.046Z" style="fill-rule:nonzero;stroke:#000;stroke-width:4px;"/>
        <path d="M703.227,231.638c0.129,2.202 0.356,3.772 0.68,4.711c0.324,0.939 0.68,1.619 1.068,2.04c0.389,0.421 0.583,0.793 0.583,1.117c0,0.453 -0.243,0.809 -0.728,1.068c-0.486,0.259 -1.02,0.389 -1.603,0.389c-1.425,0 -2.607,-0.405 -3.546,-1.214c-0.939,-0.81 -1.408,-1.992 -1.408,-3.546c-0,-8.159 0.065,-14.83 0.194,-20.01l0.194,-8.646c0.195,-6.022 0.292,-10.523 0.292,-13.502c-6.476,14.441 -12.823,25.337 -19.039,32.687c-6.217,7.35 -13.179,11.025 -20.885,11.025c-5.699,0 -9.876,-1.748 -12.531,-5.245c-2.655,-3.497 -3.983,-8.937 -3.983,-16.319c0,-9.908 2.235,-19.606 6.703,-29.093c4.468,-9.487 10.216,-17.21 17.242,-23.168c7.026,-5.958 14.134,-8.936 21.322,-8.936c2.266,-0 3.804,0.712 4.614,2.137c0.809,1.424 1.214,2.914 1.214,4.468c0,1.619 -0.146,2.898 -0.437,3.837c-0.291,0.939 -0.631,1.408 -1.02,1.408c-0.324,0 -0.567,-0.291 -0.728,-0.874c-0.162,-0.583 -0.34,-1.619 -0.535,-3.108c-0.194,-1.425 -0.518,-2.477 -0.971,-3.157c-0.453,-0.68 -1.263,-1.02 -2.429,-1.02c-5.957,-0 -12.093,2.914 -18.407,8.742c-6.314,5.829 -11.56,13.195 -15.737,22.099c-4.177,8.905 -6.265,17.598 -6.265,26.082c-0,5.375 0.89,9.568 2.671,12.579c1.781,3.012 5.003,4.517 9.665,4.517c5.052,0 9.747,-1.975 14.085,-5.925c4.339,-3.95 8.209,-8.824 11.609,-14.62c3.399,-5.795 7.431,-13.486 12.093,-23.07c-3.302,0.648 -7.933,1.943 -13.891,3.886c-2.525,0.842 -3.788,1.262 -3.788,1.262l-3.594,1.166c-2.396,0.842 -4.339,1.473 -5.828,1.894c-1.49,0.421 -2.72,0.632 -3.692,0.632c-0.647,-0 -1.149,-0.308 -1.505,-0.923c-0.356,-0.615 -0.535,-1.279 -0.535,-1.991c0,-0.907 1.328,-1.83 3.983,-2.769c2.655,-0.939 6.638,-1.991 11.948,-3.157c2.072,-0.453 5.051,-1.23 8.937,-2.331c0.647,-0.194 2.606,-0.713 5.877,-1.554c3.27,-0.842 5.553,-1.263 6.848,-1.263l1.117,-0c0.615,-0 1.052,0.243 1.311,0.728c0.26,0.486 0.389,1.247 0.389,2.283c0,0.583 -0.389,1.101 -1.166,1.554l-0.097,7.48c-0.194,5.051 -0.291,10.556 -0.291,16.513l-0,19.137Z" style="fill-rule:nonzero;stroke:#000;stroke-width:4px;"/>
        <path d="M629.475,161.043c-0,0.932 -0.661,1.748 -1.982,2.448c-2.098,1.165 -5.381,2.409 -9.85,3.73c-4.468,1.321 -8.14,2.253 -11.015,2.797c-4.508,0.855 -9.034,1.535 -13.58,2.04c-4.546,0.505 -7.48,0.797 -8.801,0.875c0.078,4.507 0.194,9.15 0.35,13.929c0.155,4.779 0.272,8.063 0.349,9.85c3.031,-0.388 7.577,-1.127 13.639,-2.215l4.429,-0.699c4.896,-0.855 8.665,-2.409 11.307,-4.663c1.399,-1.088 2.409,-1.632 3.031,-1.632c0.544,0 0.991,0.292 1.34,0.875c0.35,0.582 0.525,1.185 0.525,1.806c-0,1.399 -1.574,2.934 -4.721,4.605c-3.147,1.671 -6.625,2.894 -10.433,3.672c-3.186,0.699 -6.761,1.359 -10.724,1.981c-3.963,0.622 -6.566,1.01 -7.81,1.166c0.466,13.288 1.826,23.158 4.08,29.608c2.254,0.777 4.468,1.34 6.644,1.69c2.176,0.35 4.974,0.524 8.393,0.524c3.419,0 6.683,-0.446 9.792,-1.34c3.108,-0.894 5.614,-2.001 7.518,-3.322c1.904,-1.321 2.856,-2.565 2.856,-3.73c-0,-0.622 -0.117,-1.224 -0.35,-1.807c-0.233,-0.583 -0.544,-1.185 -0.932,-1.807c-0.156,-0.233 -0.408,-0.602 -0.758,-1.107c-0.35,-0.505 -0.525,-0.913 -0.525,-1.224c0,-0.777 0.855,-1.166 2.565,-1.166c1.243,0 2.312,0.525 3.206,1.574c0.893,1.049 1.34,2.195 1.34,3.438c0,2.487 -1.107,4.935 -3.322,7.344c-2.215,2.409 -5.246,4.371 -9.092,5.887c-3.847,1.515 -8.102,2.273 -12.764,2.273c-4.741,-0 -8.626,-0.253 -11.657,-0.758c-3.031,-0.505 -5.323,-1.496 -6.877,-2.972c-1.865,-2.099 -3.167,-5.751 -3.905,-10.958c-0.738,-5.206 -1.38,-12.161 -1.924,-20.865c-1.476,0.389 -3.127,0.719 -4.954,0.991c-1.826,0.272 -3.205,0.408 -4.138,0.408c-0.932,-0 -1.69,-0.292 -2.273,-0.874c-0.583,-0.583 -0.874,-1.302 -0.874,-2.157c0,-0.544 0.097,-1.01 0.291,-1.399c0.195,-0.388 0.486,-0.621 0.875,-0.699c2.564,-0.311 4.429,-0.505 5.595,-0.583l5.012,-0.583c-0.311,-10.024 -0.621,-18.184 -0.932,-24.479c-1.166,0 -2.099,0.039 -2.798,0.117l-5.362,0.117c-0.699,-0 -1.243,-0.195 -1.632,-0.583c-0.388,-0.389 -0.583,-0.816 -0.583,-1.282c0,-1.866 1.244,-3.109 3.73,-3.731c0.933,-0.155 2.118,-0.33 3.556,-0.524c1.437,-0.194 2.389,-0.292 2.856,-0.292c1.476,-1.631 3.108,-2.447 4.895,-2.447c0.311,-0 0.564,0.252 0.758,0.757c0.194,0.505 0.291,0.874 0.291,1.108c5.129,-0.234 11.23,-0.816 18.301,-1.749c4.663,-0.622 11.851,-2.098 21.565,-4.429l4.313,-0.933c0.777,0 1.166,0.466 1.166,1.399Z" style="fill-rule:nonzero;stroke:#000;stroke-width:4px;"/>
        <path d="M564.139,227.265c0,0.881 -0.367,1.945 -1.101,3.193c-0.733,1.248 -1.504,1.871 -2.311,1.871c-0.734,0 -1.432,-0.128 -2.092,-0.385c-0.661,-0.257 -1.652,-0.752 -2.973,-1.486c-4.623,-2.716 -10.678,-5.358 -18.164,-7.927c-3.303,-1.1 -7.211,-2.256 -11.725,-3.467c-4.514,-1.211 -8.055,-2.11 -10.624,-2.698l0.771,14.202c0.073,1.982 0.33,3.651 0.77,5.009c0.441,1.358 0.661,2.22 0.661,2.587c0,0.808 -0.404,1.486 -1.211,2.037c-0.807,0.55 -1.651,0.826 -2.532,0.826c-1.101,-0 -1.798,-0.771 -2.092,-2.312c0,-0.147 -0.091,-0.808 -0.275,-1.982c-0.183,-1.174 -0.275,-2.826 -0.275,-4.954c-0,-1.394 -0.147,-4.367 -0.441,-8.917c-0.073,-1.542 -0.146,-3.028 -0.22,-4.459c-0.073,-1.431 -0.11,-2.697 -0.11,-3.798c-0.22,-0.22 -0.495,-0.477 -0.826,-0.771c-0.33,-0.293 -0.605,-0.697 -0.825,-1.211c-0.22,-0.66 -0.404,-1.357 -0.551,-2.091c-0.146,-0.734 -0.22,-1.285 -0.22,-1.652c0,-0.513 0.147,-0.917 0.441,-1.211c0.293,-0.293 0.733,-0.624 1.321,-0.991c-0.441,-18.348 -0.661,-28.843 -0.661,-31.485c0,-2.349 0.037,-4.514 0.11,-6.496c0.074,-1.981 0.11,-3.302 0.11,-3.963c-0.44,0.074 -0.78,0.312 -2.981,0.605c-2.202,0.294 -2.611,0.897 -5.07,1.888c-2.459,0.991 -4.825,2.11 -7.101,3.358c-0.66,0.44 -1.302,0.789 -1.926,1.046c-0.624,0.257 -1.23,0.385 -1.817,0.385c-0.587,-0 -1.101,-0.275 -1.541,-0.826c-0.44,-0.55 -0.661,-1.229 -0.661,-2.036c0,-1.395 2.349,-3.01 7.046,-4.844c4.697,-1.835 10.382,-3.668 15.152,-4.145c4.771,-0.477 9.211,-0.715 13.321,-0.715c7.046,-0 13.046,0.77 18,2.312c4.954,1.541 8.697,3.706 11.229,6.495c2.532,2.789 3.798,5.982 3.798,9.578c0,4.624 -1.321,8.587 -3.963,11.89c-2.642,3.302 -6.147,6.165 -10.514,8.587c-4.367,2.422 -10.293,5.174 -17.779,8.256c-1.909,0.881 -3.798,1.688 -5.67,2.422c-1.871,0.734 -3.137,1.248 -3.798,1.542c-0,0.44 0.037,0.77 0.11,0.99c7.927,1.762 15.743,3.78 23.449,6.055l2.312,0.661c8,2.422 13.908,4.312 17.725,5.67c3.816,1.357 5.724,2.477 5.724,3.357Zm-13.1,-49.43c-0,-2.422 -1.065,-4.661 -3.193,-6.716c-2.128,-2.055 -5.339,-3.724 -9.633,-5.009c-4.293,-1.284 -9.486,-1.926 -15.578,-1.926c-4.55,-0 -7.412,0.073 -8.587,0.22c-0.073,0.514 -0.165,1.725 -0.275,3.633c-0.11,1.908 -0.165,3.816 -0.165,5.725l0.44,17.614l0.441,13.651c0.66,-0.073 1.963,-0.422 3.908,-1.046c1.945,-0.624 3.578,-1.229 4.899,-1.816c9.321,-3.743 16.275,-7.505 20.862,-11.284c4.587,-3.78 6.881,-8.129 6.881,-13.046Z" style="fill-rule:nonzero;stroke:#000;stroke-width:4px;"/>
        <path d="M484.408,163.582c-0,0.933 -0.661,1.749 -1.982,2.448c-2.098,1.166 -5.381,2.409 -9.85,3.73c-4.468,1.322 -8.14,2.254 -11.015,2.798c-4.507,0.855 -9.034,1.535 -13.58,2.04c-4.546,0.505 -7.48,0.796 -8.801,0.874c0.078,4.507 0.194,9.151 0.35,13.93c0.155,4.779 0.272,8.062 0.349,9.85c3.031,-0.389 7.577,-1.127 13.639,-2.215l4.429,-0.699c4.896,-0.855 8.665,-2.41 11.307,-4.663c1.399,-1.088 2.409,-1.632 3.031,-1.632c0.544,-0 0.991,0.291 1.34,0.874c0.35,0.583 0.525,1.185 0.525,1.807c-0,1.399 -1.574,2.934 -4.721,4.604c-3.147,1.671 -6.625,2.895 -10.433,3.672c-3.186,0.7 -6.761,1.36 -10.724,1.982c-3.963,0.621 -6.566,1.01 -7.81,1.165c0.467,13.289 1.827,23.158 4.08,29.608c2.254,0.777 4.469,1.341 6.644,1.69c2.176,0.35 4.974,0.525 8.393,0.525c3.419,-0 6.683,-0.447 9.792,-1.341c3.108,-0.893 5.614,-2.001 7.518,-3.322c1.904,-1.321 2.856,-2.564 2.856,-3.73c0,-0.621 -0.116,-1.224 -0.35,-1.807c-0.233,-0.582 -0.544,-1.185 -0.932,-1.806c-0.156,-0.233 -0.408,-0.603 -0.758,-1.108c-0.35,-0.505 -0.524,-0.913 -0.524,-1.224c-0,-0.777 0.854,-1.165 2.564,-1.165c1.243,-0 2.312,0.524 3.206,1.573c0.893,1.049 1.34,2.196 1.34,3.439c0,2.487 -1.107,4.935 -3.322,7.344c-2.215,2.409 -5.245,4.371 -9.092,5.886c-3.847,1.516 -8.101,2.273 -12.764,2.273c-4.74,0 -8.626,-0.252 -11.657,-0.757c-3.03,-0.506 -5.323,-1.496 -6.877,-2.973c-1.865,-2.098 -3.167,-5.75 -3.905,-10.957c-0.738,-5.207 -1.379,-12.162 -1.923,-20.865c-1.477,0.388 -3.128,0.718 -4.954,0.99c-1.827,0.272 -3.206,0.408 -4.139,0.408c-0.932,0 -1.69,-0.291 -2.273,-0.874c-0.582,-0.583 -0.874,-1.301 -0.874,-2.156c0,-0.544 0.097,-1.011 0.292,-1.399c0.194,-0.389 0.485,-0.622 0.874,-0.699c2.564,-0.311 4.429,-0.506 5.595,-0.583l5.012,-0.583c-0.311,-10.025 -0.621,-18.184 -0.932,-24.479c-1.166,0 -2.098,0.039 -2.798,0.117l-5.362,0.116c-0.699,0 -1.243,-0.194 -1.632,-0.583c-0.388,-0.388 -0.583,-0.816 -0.583,-1.282c0,-1.865 1.244,-3.108 3.731,-3.73c0.932,-0.155 2.117,-0.33 3.555,-0.525c1.437,-0.194 2.389,-0.291 2.856,-0.291c1.476,-1.632 3.108,-2.448 4.895,-2.448c0.311,0 0.564,0.253 0.758,0.758c0.194,0.505 0.292,0.874 0.292,1.107c5.128,-0.233 11.229,-0.816 18.3,-1.748c4.663,-0.622 11.851,-2.098 21.565,-4.43l4.313,-0.932c0.777,-0 1.166,0.466 1.166,1.398Z" style="fill-rule:nonzero;stroke:#000;stroke-width:4px;"/>
        <path d="M418.768,149.509c-0,7.104 -2.89,13.214 -8.669,18.331c-5.779,5.117 -13.846,9.963 -24.2,14.538c-3.733,1.686 -7.525,3.251 -11.378,4.696c-3.853,1.445 -6.381,2.348 -7.585,2.709c0.602,14.689 0.903,27.21 0.903,37.564c-0,3.372 0.391,6.111 1.174,8.218c0.782,2.107 1.173,3.461 1.173,4.063c0,1.325 -0.662,2.438 -1.986,3.341c-1.325,0.903 -2.709,1.355 -4.154,1.355c-1.806,-0 -2.95,-1.264 -3.431,-3.793c-0,-0.241 -0.151,-1.324 -0.452,-3.251c-0.301,-1.926 -0.451,-4.635 -0.451,-8.127c-0,-9.391 -0.362,-24.802 -1.084,-46.233c-0.361,-10.836 -0.542,-18.542 -0.542,-23.117c0,-3.853 0.06,-7.434 0.181,-10.745c0.12,-3.311 0.18,-5.569 0.18,-6.773c-7.585,2.047 -21.701,6.571 -27.239,8.738c-1.806,0.843 -4.335,2.228 -7.586,4.154c-1.444,0.843 -2.859,1.626 -4.244,2.348c-1.384,0.722 -2.438,1.084 -3.16,1.084c-0.963,-0 -1.806,-0.422 -2.529,-1.265c-0.722,-0.842 -1.083,-1.866 -1.083,-3.07c-0,-1.565 2.287,-3.521 6.863,-5.869c4.575,-2.348 10.143,-4.606 16.705,-6.773c6.562,-2.167 20.166,-6.21 25.705,-7.293c6.501,-1.204 13.725,-1.806 21.672,-1.806c10.956,-0 19.565,1.414 25.826,4.244c6.26,2.829 9.391,7.073 9.391,12.732Zm-8.308,1.445c0,-4.094 -2.588,-6.983 -7.766,-8.669c-5.177,-1.686 -11.558,-2.528 -19.143,-2.528c-5.539,-0 -11.197,0.361 -16.977,1.083c-0.12,0.963 -0.27,3.191 -0.451,6.682c-0.181,3.492 -0.271,6.803 -0.271,9.933l0.181,13.184c0.12,2.89 0.18,6.562 0.18,11.017c2.529,-0.241 7.886,-2.047 16.074,-5.418c7.946,-3.492 14.628,-7.375 20.046,-11.649c5.418,-4.274 8.127,-8.819 8.127,-13.635Z" style="fill-rule:nonzero;stroke:#000;stroke-width:4px;"/>
        <path d="M530.178,48.448c-0,6.062 -1.749,11.812 -5.246,17.252c-3.497,5.44 -9.17,11.618 -17.018,18.534c-4.741,4.196 -9.617,8.16 -14.629,11.89c-5.013,3.73 -9.19,6.372 -12.531,7.926c-0.233,0.855 -0.583,1.496 -1.049,1.924c-0.467,0.427 -1.166,0.641 -2.098,0.641c-0.7,-0 -1.205,-0.136 -1.516,-0.408c-0.311,-0.272 -0.466,-0.758 -0.466,-1.457c-0,-0.467 0.175,-2.409 0.524,-5.829c0.35,-3.419 0.525,-7.421 0.525,-12.006c-0,-7.771 -0.117,-14.804 -0.35,-21.098c-0.155,-7.305 -0.233,-12.434 -0.233,-15.387c0,-4.585 0.466,-8.354 1.399,-11.307c0.699,-1.865 1.943,-2.798 3.73,-2.798c0.622,0 1.185,0.117 1.69,0.35c0.505,0.233 0.758,0.583 0.758,1.049c-0.078,0.389 -0.486,1.749 -1.224,4.08c-0.738,2.331 -1.107,4.546 -1.107,6.644c-0,5.829 0.116,12.201 0.349,19.117c0.156,8.859 0.233,14.998 0.233,18.418c0,5.828 -0.038,9.325 -0.116,10.49c2.797,-1.087 6.586,-3.341 11.365,-6.76c4.779,-3.42 8.801,-6.528 12.065,-9.326c6.76,-6.061 11.695,-11.501 14.804,-16.319c3.108,-4.818 4.662,-9.83 4.662,-15.037c0,-6.294 -3.944,-10.607 -11.831,-12.939c-7.888,-2.331 -18.204,-3.497 -30.949,-3.497c-3.885,0 -9.092,0.467 -15.619,1.399c-1.244,0.078 -3.187,0.466 -5.829,1.166c-1.165,0.388 -1.981,0.583 -2.448,0.583c-0.621,-0 -1.224,-0.506 -1.806,-1.516c-0.583,-1.01 -0.875,-2.02 -0.875,-3.031c0,-0.388 0.272,-0.757 0.816,-1.107c0.544,-0.35 1.399,-0.602 2.565,-0.758c4.662,-0.621 8.645,-1.088 11.948,-1.398c3.303,-0.311 7.169,-0.467 11.598,-0.467c14.143,0 25.664,1.593 34.562,4.78c8.898,3.186 13.347,8.587 13.347,16.202Z" style="fill-rule:nonzero;stroke:#000;stroke-width:4px;"/>
        <path d="M454.177,28.282c-0,0.933 -0.661,1.749 -1.982,2.448c-2.098,1.166 -5.381,2.409 -9.85,3.73c-4.468,1.321 -8.14,2.254 -11.015,2.798c-4.507,0.855 -9.034,1.535 -13.58,2.04c-4.546,0.505 -7.48,0.796 -8.801,0.874c0.078,4.507 0.194,9.151 0.35,13.93c0.155,4.779 0.272,8.062 0.35,9.85c3.03,-0.389 7.576,-1.127 13.638,-2.215l4.429,-0.7c4.896,-0.854 8.665,-2.409 11.307,-4.662c1.399,-1.088 2.409,-1.632 3.031,-1.632c0.544,-0 0.991,0.291 1.34,0.874c0.35,0.583 0.525,1.185 0.525,1.807c-0,1.399 -1.574,2.933 -4.721,4.604c-3.147,1.671 -6.625,2.895 -10.433,3.672c-3.186,0.699 -6.76,1.36 -10.724,1.982c-3.963,0.621 -6.566,1.01 -7.81,1.165c0.467,13.289 1.827,23.158 4.08,29.608c2.254,0.777 4.469,1.341 6.644,1.69c2.176,0.35 4.974,0.525 8.393,0.525c3.419,-0 6.683,-0.447 9.792,-1.341c3.108,-0.893 5.614,-2.001 7.518,-3.322c1.904,-1.321 2.856,-2.564 2.856,-3.73c0,-0.622 -0.116,-1.224 -0.35,-1.807c-0.233,-0.583 -0.544,-1.185 -0.932,-1.806c-0.156,-0.234 -0.408,-0.603 -0.758,-1.108c-0.35,-0.505 -0.524,-0.913 -0.524,-1.224c-0,-0.777 0.854,-1.165 2.564,-1.165c1.243,-0 2.312,0.524 3.206,1.573c0.893,1.049 1.34,2.196 1.34,3.439c0,2.487 -1.107,4.935 -3.322,7.344c-2.215,2.409 -5.245,4.371 -9.092,5.886c-3.847,1.515 -8.101,2.273 -12.764,2.273c-4.74,0 -8.626,-0.252 -11.657,-0.758c-3.03,-0.505 -5.323,-1.495 -6.877,-2.972c-1.865,-2.098 -3.167,-5.751 -3.905,-10.957c-0.738,-5.207 -1.379,-12.162 -1.923,-20.865c-1.477,0.388 -3.128,0.718 -4.954,0.99c-1.827,0.272 -3.206,0.408 -4.139,0.408c-0.932,0 -1.69,-0.291 -2.273,-0.874c-0.582,-0.583 -0.874,-1.302 -0.874,-2.156c0,-0.544 0.097,-1.011 0.292,-1.399c0.194,-0.389 0.485,-0.622 0.874,-0.7c2.564,-0.31 4.429,-0.505 5.595,-0.582l5.012,-0.583c-0.31,-10.025 -0.621,-18.185 -0.932,-24.479c-1.166,-0 -2.098,0.039 -2.798,0.116l-5.362,0.117c-0.699,0 -1.243,-0.194 -1.632,-0.583c-0.388,-0.388 -0.583,-0.816 -0.583,-1.282c0,-1.865 1.244,-3.108 3.731,-3.73c0.932,-0.156 2.117,-0.33 3.555,-0.525c1.437,-0.194 2.389,-0.291 2.856,-0.291c1.476,-1.632 3.108,-2.448 4.895,-2.448c0.311,0 0.564,0.253 0.758,0.758c0.194,0.505 0.292,0.874 0.292,1.107c5.128,-0.233 11.229,-0.816 18.3,-1.748c4.663,-0.622 11.851,-2.099 21.565,-4.43l4.313,-0.932c0.777,-0 1.166,0.466 1.166,1.398Z" style="fill-rule:nonzero;stroke:#000;stroke-width:4px;"/>
        <path d="M389.021,91.87c-0,1.114 -0.464,2.461 -1.393,4.04c-0.929,1.578 -1.904,2.368 -2.925,2.368c-0.929,-0 -1.811,-0.163 -2.647,-0.488c-0.836,-0.325 -2.09,-0.952 -3.761,-1.88c-5.851,-3.436 -13.513,-6.78 -22.986,-10.03c-4.179,-1.393 -9.124,-2.856 -14.836,-4.388c-5.711,-1.533 -10.192,-2.67 -13.442,-3.413l0.975,17.97c0.093,2.507 0.418,4.62 0.975,6.338c0.557,1.718 0.836,2.81 0.836,3.274c-0,1.022 -0.511,1.881 -1.533,2.577c-1.021,0.697 -2.089,1.045 -3.204,1.045c-1.393,-0 -2.275,-0.975 -2.646,-2.925c-0,-0.186 -0.116,-1.022 -0.349,-2.508c-0.232,-1.486 -0.348,-3.575 -0.348,-6.269c0,-1.764 -0.186,-5.525 -0.557,-11.283c-0.093,-1.951 -0.186,-3.831 -0.279,-5.642c-0.093,-1.811 -0.139,-3.413 -0.139,-4.806c-0.279,-0.279 -0.627,-0.604 -1.045,-0.975c-0.418,-0.372 -0.766,-0.882 -1.045,-1.533c-0.278,-0.835 -0.51,-1.718 -0.696,-2.646c-0.186,-0.929 -0.279,-1.626 -0.279,-2.09c0,-0.65 0.186,-1.161 0.557,-1.532c0.372,-0.372 0.929,-0.79 1.672,-1.254c-0.557,-23.217 -0.836,-36.498 -0.836,-39.841c0,-2.972 0.047,-5.711 0.14,-8.219c0.092,-2.507 0.139,-4.179 0.139,-5.015c-0.557,0.093 -2.229,0.325 -5.015,0.697c-2.786,0.371 -5.015,0.743 -6.687,1.114c-5.943,1.393 -10.471,2.717 -13.582,3.97c-3.111,1.254 -6.106,2.67 -8.985,4.249c-0.836,0.557 -1.648,0.998 -2.438,1.324c-0.789,0.325 -1.555,0.487 -2.298,0.487c-0.743,0 -1.393,-0.348 -1.95,-1.045c-0.558,-0.696 -0.836,-1.555 -0.836,-2.577c-0,-1.764 2.972,-3.807 8.915,-6.129c5.944,-2.322 12.398,-4.226 19.363,-5.712c3.901,-0.835 8.869,-1.555 14.906,-2.159c6.036,-0.604 11.655,-0.905 16.856,-0.905c8.915,-0 16.507,0.975 22.776,2.925c6.269,1.95 11.005,4.69 14.209,8.219c3.204,3.529 4.806,7.569 4.806,12.119c-0,5.851 -1.672,10.866 -5.015,15.045c-3.343,4.179 -7.778,7.801 -13.304,10.866c-5.525,3.065 -13.024,6.547 -22.497,10.448c-2.415,1.114 -4.806,2.136 -7.174,3.064c-2.368,0.929 -3.97,1.579 -4.806,1.951c-0,0.557 0.046,0.975 0.139,1.253c10.03,2.229 19.921,4.783 29.672,7.662l2.925,0.836c10.123,3.065 17.599,5.456 22.428,7.174c4.829,1.718 7.244,3.134 7.244,4.249Zm-16.577,-62.548c-0,-3.064 -1.347,-5.897 -4.04,-8.497c-2.693,-2.6 -6.756,-4.713 -12.189,-6.338c-5.433,-1.626 -12.004,-2.438 -19.712,-2.438c-5.758,-0 -9.379,0.093 -10.865,0.278c-0.093,0.65 -0.209,2.183 -0.349,4.597c-0.139,2.415 -0.209,4.83 -0.209,7.244l0.558,22.289l0.557,17.273c0.836,-0.092 2.484,-0.534 4.945,-1.323c2.461,-0.789 4.527,-1.555 6.199,-2.298c11.795,-4.737 20.594,-9.496 26.398,-14.279c5.805,-4.783 8.707,-10.285 8.707,-16.508Z" style="fill-rule:nonzero;stroke:#000;stroke-width:4px;"/>
    </g>
    <g id="redPeregrine">
        <path id="Wings" d="M105.993,165.23c37.245,-10.373 24.335,-48.157 5.87,-60.86c8.205,-5.123 20.863,-12.72 25.413,-16.275c1.504,-1.174 6.179,-5.626 6.305,-7.899c0.242,-4.396 -9.42,-11.895 -14.466,-15.966c-5.51,-4.446 -49.473,-30.388 -73.377,-44.886l-0.862,-4.19l8.352,0.14c42.541,18.522 116.709,50.192 127.925,56.583c10.163,5.791 14.466,8.963 22.121,16.956c7.756,8.101 15.595,17.036 13.278,32.672c-0.523,3.528 -10.59,3.743 -18.087,7.82c-3.906,2.124 -7.642,5.877 -6.477,14.774c0.267,2.046 1.663,4.09 3.351,5.927l-23.09,45.391c-0.616,1.432 -1.211,2.879 -1.065,4.842c0.714,4.258 3.175,7.645 4.07,15.022c0.682,5.625 -0.387,12.54 -13.558,14.891c-9.273,1.656 -29.494,2.404 -37.959,-2.543c-14.868,-8.69 -89.433,-50.525 -127.552,-87.619l-2.965,-7.664c25.026,10.381 67.121,27.794 76.819,31.247c4.638,1.652 5.557,2.04 16.822,3.481c5.831,0.746 6.786,-0.915 9.132,-1.844Z" style="fill:#c00400;stroke:#5e0e0c;stroke-width:1.5px;stroke-linecap:round;stroke-miterlimit:1.5;"/>
        <path id="Body" d="M64.177,141.368c-4.073,-1.933 -8.791,-7.882 -12.378,-11.816l-8.522,-9.245l-8.04,-7.586l2.16,-3.167l21.858,3.588l-5.827,-5.266l-5.501,-1.018l-8.481,-6.032l3.576,-3.877l37.716,5.233l-0.18,-0.049c1.591,-1.143 2.836,-2.617 5.704,-2.547c9.955,0.939 17.529,3.086 25.601,4.784l0.057,0.113c20.101,3.888 69.513,26.085 93.273,45.446l0.146,0.097c1.442,1.568 3.098,2.985 4.447,4.121c29.529,24.859 16.497,21.253 20.431,27.697c8.574,12.355 5.012,14.479 1.546,17.822l0.178,-4.25c-4.84,-2.782 -6.679,-1.35 -9.93,-1.806c-12.585,0.803 -21.158,2.804 -39.762,1.807c-16.107,-1.818 -41.502,-8.712 -76.47,-30.201l0.214,0.014c-17.09,-9.735 -23.833,-16.829 -34.848,-21.342c-2.529,-1.037 -6.968,-2.52 -6.968,-2.52Z" style="fill:#e9d8ce;stroke:#5e0e0c;stroke-width:1.5px;stroke-linecap:round;stroke-miterlimit:1.5;"/>
        <path id="Tail" d="M71.145,143.888c-15.293,-6.267 -20.307,-4.289 -53.154,-21.042l-9.69,-13.27l4.902,-23.604l8.939,-10.449l11.498,1.585l46.918,25.025l0.18,0.049l-37.716,-5.233l-3.576,3.877l8.481,6.032l5.501,1.018l5.827,5.266l-21.858,-3.588l-2.16,3.167l8.04,7.586l8.522,9.245c3.587,3.934 8.305,9.883 12.378,11.816" style="fill:#c00400;stroke:#5e0e0c;stroke-width:1.5px;stroke-linecap:round;stroke-miterlimit:1.5;"/>
        <path id="Mask" d="M230.217,181.844c-3.934,-6.444 9.098,-2.838 -20.431,-27.697c-1.349,-1.136 -3.005,-2.553 -4.447,-4.121l0.032,0.012c-8.394,8.063 -6.971,8.398 -9.375,12.208c9.944,7.731 3.378,17.803 2.022,20.662c2.085,4.559 3.679,5.63 5.353,5.823c13.255,3.302 13.286,1.737 18.268,0.09c1.766,-0.735 2.728,-0.821 3.655,-0.316c4.288,-3.74 4.085,-4.984 5.019,-6.57" style="fill:#c00400;stroke:#5e0e0c;stroke-width:1.5px;stroke-linecap:round;stroke-miterlimit:1.5;"/>
        <g id="Face">
            <path id="Eye" d="M213.363,172.466c2.651,0.203 5.083,0.157 8.399,1.109c4.32,2.802 4.536,3.705 5.698,5.068c0.199,0.929 0.39,1.861 -0.352,3.136c-2.845,2.406 -3.263,2.714 -4.624,2.489c-2.916,-3.2 -5.634,-5.227 -9.121,-11.802Z" style="fill:#e9d8ce;stroke:#5e0e0c;stroke-width:1.5px;stroke-linecap:round;stroke-miterlimit:1.5;"/>
            <path id="nostril" d="M229.633,186.539l1.037,0.659l-0.097,0.523l-0.94,-1.182Z" style="fill:#c00400;stroke:#5e0e0c;stroke-width:1.5px;stroke-linecap:round;stroke-miterlimit:1.5;"/>
            <path id="mouth" d="M225.285,189.458l6.662,6.763" style="fill:none;stroke:#5e0e0c;stroke-width:1.5px;stroke-linecap:round;stroke-miterlimit:1.5;"/>
            <path id="eyeball" d="M219.569,175.471c1.449,-0.002 6.196,3.135 6.54,4.203c-0.173,1.459 -1.403,2.566 -2.894,2.532c-1.393,0.162 -0.826,-2.807 -3.646,-6.735Z" style="fill:#712926;stroke:#712926;stroke-width:1px;stroke-linecap:round;stroke-miterlimit:1.5;"/>
        </g>
    </g>
</svg>

